<svg width="1440" height="336" viewBox="0 0 1440 336" fill="none" xmlns="http://www.w3.org/2000/svg">
<mask id="mask0_24_107" style="mask-type:luminance" maskUnits="userSpaceOnUse" x="0" y="-677" width="1520" height="1354">
<path d="M1520 -676.404H0V676.404H1520V-676.404Z" fill="white"/>
</mask>
<g mask="url(#mask0_24_107)">
<path d="M1520 -676.404H0V676.404H1520V-676.404Z" fill="white"/>
<path d="M278.139 766.239C519.196 766.239 714.611 594.71 714.611 383.119C714.611 171.528 519.196 0 278.139 0C37.082 0 -158.333 171.528 -158.333 383.119C-158.333 594.71 37.082 766.239 278.139 766.239Z" fill="#F8F8F8"/>
<path d="M735.194 745.101C906.295 745.101 1045 578.304 1045 372.55C1045 166.797 906.295 0 735.194 0C564.094 0 425.389 166.797 425.389 372.55C425.389 578.304 564.094 745.101 735.194 745.101Z" fill="#F8F8F8"/>
<path d="M1126.28 840.22C1385.12 840.22 1594.94 691.168 1594.94 507.303C1594.94 323.438 1385.12 174.385 1126.28 174.385C867.44 174.385 657.611 323.438 657.611 507.303C657.611 691.168 867.44 840.22 1126.28 840.22Z" fill="#F8F8F8"/>
</g>
</svg>
