<svg width="26" height="23" viewBox="0 0 26 23" fill="none" xmlns="http://www.w3.org/2000/svg">
<path d="M18.3828 4.21199V2.93262H16.8203V4.21199H9.14063V2.93262H7.57813V4.21199H2.71094V20.7864H23.1562V4.21199H18.3828ZM21.5938 19.3489H4.27344V10.4148H21.5938V19.3489ZM4.27344 8.9773V5.64949H7.57813V6.92887H9.14063V5.64949H16.8203V6.92887H18.3828V5.64949H21.5938V8.9773H4.27344Z" fill="#231F20" fill-opacity="0.6"/>
<path d="M12.4844 11.4424H10.9375V12.8799H12.4844V11.4424Z" fill="#231F20" fill-opacity="0.6"/>
<path d="M9.84375 14.1592H8.29688V15.5967H9.84375V14.1592Z" fill="#231F20" fill-opacity="0.6"/>
<path d="M12.4844 14.1592H10.9375V15.5967H12.4844V14.1592Z" fill="#231F20" fill-opacity="0.6"/>
<path d="M7.19531 14.1592H5.64844V15.5967H7.19531V14.1592Z" fill="#231F20" fill-opacity="0.6"/>
<path d="M9.84375 16.8838H8.29688V18.3213H9.84375V16.8838Z" fill="#231F20" fill-opacity="0.6"/>
<path d="M12.4844 16.8838H10.9375V18.3213H12.4844V16.8838Z" fill="#231F20" fill-opacity="0.6"/>
<path d="M7.19531 16.8838H5.64844V18.3213H7.19531V16.8838Z" fill="#231F20" fill-opacity="0.6"/>
<path d="M17.7969 11.4424H16.25V12.8799H17.7969V11.4424Z" fill="#231F20" fill-opacity="0.6"/>
<path d="M20.4375 11.4424H18.8906V12.8799H20.4375V11.4424Z" fill="#231F20" fill-opacity="0.6"/>
<path d="M15.1406 11.4424H13.6016V12.8799H15.1406V11.4424Z" fill="#231F20" fill-opacity="0.6"/>
<path d="M17.7969 14.1592H16.25V15.5967H17.7969V14.1592Z" fill="#231F20" fill-opacity="0.6"/>
<path d="M20.4375 14.1592H18.8906V15.5967H20.4375V14.1592Z" fill="#231F20" fill-opacity="0.6"/>
<path d="M15.1406 14.1592H13.6016V15.5967H15.1406V14.1592Z" fill="#231F20" fill-opacity="0.6"/>
<path d="M15.1406 16.8838H13.6016V18.3213H15.1406V16.8838Z" fill="#231F20" fill-opacity="0.6"/>
</svg>
