<svg width="26" height="23" viewBox="0 0 26 23" fill="none" xmlns="http://www.w3.org/2000/svg">
<g clip-path="url(#clip0_279_468)">
<path d="M23.2813 11.0204C22.6146 9.95661 18.9479 4.6187 12.7188 4.7912C6.95833 4.92536 3.625 9.58286 2.71875 11.0204C2.62732 11.166 2.57919 11.3313 2.57919 11.4995C2.57919 11.6678 2.62732 11.833 2.71875 11.9787C3.375 13.0233 6.88542 18.2079 13.0208 18.2079H13.2813C19.0417 18.0737 22.3854 13.4162 23.2813 11.9787C23.3727 11.833 23.4208 11.6678 23.4208 11.4995C23.4208 11.3313 23.3727 11.166 23.2813 11.0204ZM13.2292 16.2912C8.73958 16.387 5.8125 12.8508 4.89583 11.4995C5.9375 9.95661 8.65625 6.8037 12.8229 6.70786C17.2917 6.60245 20.2292 10.1483 21.1563 11.4995C20.0833 13.0424 17.3958 16.1954 13.2292 16.2912Z" fill="black" fill-opacity="0.6"/>
<path d="M13 8.14551C12.2789 8.14551 11.574 8.34223 10.9745 8.71079C10.3749 9.07935 9.90764 9.6032 9.6317 10.2161C9.35575 10.829 9.28355 11.5034 9.42423 12.154C9.5649 12.8047 9.91213 13.4023 10.422 13.8714C10.9319 14.3405 11.5815 14.66 12.2887 14.7894C12.996 14.9188 13.729 14.8524 14.3952 14.5985C15.0614 14.3447 15.6308 13.9147 16.0314 13.3631C16.432 12.8116 16.6458 12.1631 16.6458 11.4997C16.6458 10.6101 16.2617 9.75695 15.578 9.12792C14.8943 8.49889 13.9669 8.14551 13 8.14551ZM13 12.9372C12.691 12.9372 12.3889 12.8529 12.1319 12.6949C11.875 12.537 11.6747 12.3125 11.5564 12.0498C11.4382 11.7871 11.4072 11.4981 11.4675 11.2192C11.5278 10.9404 11.6766 10.6842 11.8952 10.4832C12.1137 10.2822 12.3921 10.1453 12.6952 10.0898C12.9983 10.0343 13.3124 10.0628 13.598 10.1716C13.8835 10.2804 14.1275 10.4646 14.2992 10.701C14.4709 10.9374 14.5625 11.2154 14.5625 11.4997C14.5625 11.8809 14.3979 12.2466 14.1049 12.5161C13.8118 12.7857 13.4144 12.9372 13 12.9372Z" fill="black" fill-opacity="0.6"/>
</g>
<defs>
<clipPath id="clip0_279_468">
<rect width="25" height="23" fill="white" transform="translate(0.5)"/>
</clipPath>
</defs>
</svg>
