<svg width="70" height="70" viewBox="0 0 70 70" fill="none" xmlns="http://www.w3.org/2000/svg">
<path d="M20.8398 0.625C9.74365 0.625 0.625 9.73145 0.625 20.8398V49.1602C0.625 60.2563 9.73145 69.375 20.8398 69.375H49.1602C60.2563 69.375 69.375 60.2686 69.375 49.1602V20.8398C69.375 9.74365 60.2686 0.625 49.1602 0.625H20.8398ZM20.8398 6.875H49.1602C56.8872 6.875 63.125 13.1128 63.125 20.8398V49.1602C63.125 56.8872 56.8872 63.125 49.1602 63.125H20.8398C13.1128 63.125 6.875 56.8872 6.875 49.1602V20.8398C6.875 13.1128 13.1128 6.875 20.8398 6.875ZM53.457 13.7109C51.8823 13.7109 50.625 14.9683 50.625 16.543C50.625 18.1177 51.8823 19.375 53.457 19.375C55.0317 19.375 56.2891 18.1177 56.2891 16.543C56.2891 14.9683 55.0317 13.7109 53.457 13.7109ZM35 16.25C24.6851 16.25 16.25 24.6851 16.25 35C16.25 45.3149 24.6851 53.75 35 53.75C45.3149 53.75 53.75 45.3149 53.75 35C53.75 24.6851 45.3149 16.25 35 16.25ZM35 22.5C41.9458 22.5 47.5 28.0542 47.5 35C47.5 41.9458 41.9458 47.5 35 47.5C28.0542 47.5 22.5 41.9458 22.5 35C22.5 28.0542 28.0542 22.5 35 22.5Z" fill="white"/>
</svg>
