<svg width="21" height="21" viewBox="0 0 21 21" fill="none" xmlns="http://www.w3.org/2000/svg">
<path d="M20.2249 18.8129L16.5149 15.1329C17.955 13.3373 18.6524 11.0582 18.4637 8.76415C18.275 6.47016 17.2146 4.33564 15.5004 2.7995C13.7863 1.26336 11.5487 0.442364 9.24784 0.505324C6.94696 0.568284 4.75764 1.51042 3.13006 3.138C1.50248 4.76558 0.56035 6.95489 0.49739 9.25578C0.434429 11.5567 1.25543 13.7942 2.79156 15.5084C4.3277 17.2225 6.46222 18.283 8.75622 18.4717C11.0502 18.6604 13.3293 17.963 15.1249 16.5229L18.8049 20.2029C18.8979 20.2966 19.0085 20.371 19.1303 20.4217C19.2522 20.4725 19.3829 20.4987 19.5149 20.4987C19.6469 20.4987 19.7776 20.4725 19.8995 20.4217C20.0214 20.371 20.132 20.2966 20.2249 20.2029C20.4052 20.0164 20.5059 19.7672 20.5059 19.5079C20.5059 19.2485 20.4052 18.9993 20.2249 18.8129ZM9.51492 16.5229C8.13045 16.5229 6.77707 16.1123 5.62593 15.3431C4.47478 14.574 3.57758 13.4807 3.04776 12.2016C2.51795 10.9226 2.37933 9.51509 2.64942 8.15722C2.91952 6.79935 3.5862 5.55207 4.56517 4.57311C5.54414 3.59414 6.79142 2.92745 8.14929 2.65736C9.50715 2.38726 10.9146 2.52588 12.1937 3.0557C13.4728 3.58551 14.566 4.48272 15.3352 5.63386C16.1044 6.78501 16.5149 8.13838 16.5149 9.52285C16.5149 11.3794 15.7774 13.1598 14.4647 14.4726C13.1519 15.7854 11.3714 16.5229 9.51492 16.5229Z" fill="#108A4A"/>
</svg>
